<svg width="17" height="17" viewBox="0 0 17 17" fill="none" xmlns="http://www.w3.org/2000/svg">
<g clip-path="url(#clip0_700_6)">
<path d="M8.5625 12.5625C10.7716 12.5625 12.5625 10.7716 12.5625 8.5625C12.5625 6.35336 10.7716 4.5625 8.5625 4.5625C6.35336 4.5625 4.5625 6.35336 4.5625 8.5625C4.5625 10.7716 6.35336 12.5625 8.5625 12.5625Z" fill="currentColor"/>
<path d="M8.56221 2.96222C8.12002 2.96222 7.76221 2.604 7.76221 2.16222V1.3625C7.76221 0.920719 8.12002 0.5625 8.56221 0.5625C9.00439 0.5625 9.36221 0.920719 9.36221 1.3625V2.16222C9.36221 2.604 9.00439 2.96222 8.56221 2.96222Z" fill="currentColor"/>
<path d="M13.0883 4.83677C12.8836 4.83677 12.679 4.75865 12.5227 4.6024C12.2102 4.28999 12.2102 3.78346 12.5227 3.47105L13.0883 2.90552C13.4008 2.59321 13.9071 2.59312 14.2196 2.90562C14.5321 3.21802 14.5321 3.72455 14.2196 4.03696L13.654 4.60249C13.4977 4.75865 13.293 4.83677 13.0883 4.83677Z" fill="currentColor"/>
<path d="M15.7626 9.36251H14.9626C14.5204 9.36251 14.1626 9.00429 14.1626 8.56251C14.1626 8.12073 14.5204 7.76251 14.9626 7.76251H15.7626C16.2048 7.76251 16.5626 8.12073 16.5626 8.56251C16.5626 9.00429 16.2048 9.36251 15.7626 9.36251Z" fill="currentColor"/>
<path d="M13.654 14.4537C13.4493 14.4537 13.2446 14.3757 13.0883 14.2194L12.5227 13.6539C12.2102 13.3415 12.2102 12.8349 12.5227 12.5225C12.8352 12.21 13.3415 12.2099 13.654 12.5224L14.2196 13.088C14.5321 13.4004 14.5321 13.9069 14.2196 14.2193C14.0633 14.3756 13.8586 14.4537 13.654 14.4537Z" fill="currentColor"/>
<path d="M8.56221 16.5624C8.12002 16.5624 7.76221 16.2042 7.76221 15.7624V14.9627C7.76221 14.5209 8.12002 14.1627 8.56221 14.1627C9.00439 14.1627 9.36221 14.5209 9.36221 14.9627V15.7624C9.36221 16.2042 9.00439 16.5624 8.56221 16.5624Z" fill="currentColor"/>
<path d="M3.47114 14.4537C3.26646 14.4537 3.06177 14.3756 2.90552 14.2193C2.59302 13.9069 2.59302 13.4004 2.90552 13.088L3.47114 12.5225C3.78364 12.2102 4.28989 12.2101 4.60239 12.5226C4.91489 12.835 4.91489 13.3415 4.60239 13.6539L4.03677 14.2194C3.88052 14.3756 3.67583 14.4537 3.47114 14.4537Z" fill="currentColor"/>
<path d="M2.1625 9.36251H1.3625C0.920313 9.36251 0.5625 9.00429 0.5625 8.56251C0.5625 8.12073 0.920313 7.76251 1.3625 7.76251H2.1625C2.60469 7.76251 2.9625 8.12073 2.9625 8.56251C2.9625 9.00429 2.60469 9.36251 2.1625 9.36251Z" fill="currentColor"/>
<path d="M4.03677 4.83684C3.83208 4.83684 3.62739 4.75881 3.47114 4.60256L2.90552 4.03703C2.59302 3.72462 2.59302 3.21809 2.90552 2.90569C3.21802 2.59319 3.72427 2.59309 4.03677 2.90559L4.60239 3.47112C4.91489 3.78353 4.91489 4.29006 4.60239 4.60247C4.44614 4.75872 4.24146 4.83684 4.03677 4.83684Z" fill="currentColor"/>
</g>
<defs>
<clipPath id="clip0_700_6">
<rect width="16" height="16" fill="currentColor" transform="translate(0.5625 0.5625)"/>
</clipPath>
</defs>
</svg>
